<?xml version="1.0" encoding="utf-8"?>
<!-- Generator: Adobe Illustrator 27.8.0, SVG Export Plug-In . SVG Version: 6.00 Build 0)  -->
<svg version="1.1" xmlns="http://www.w3.org/2000/svg" xmlns:xlink="http://www.w3.org/1999/xlink" x="0px" y="0px"
	 viewBox="0 0 114 145" style="enable-background:new 0 0 114 145;" xml:space="preserve">
<style type="text/css">
	.st0{fill:#FFFFFF;}
	.st1{fill:#0F0F0F;}
	.st2{fill:#0E0E0E;}
	.st3{fill:none;stroke:#FFFFFF;stroke-width:1.5;stroke-miterlimit:10;}
	.st4{fill:#111111;}
	.st5{fill:none;stroke:#FFFFFF;stroke-width:0.5;stroke-miterlimit:10;}
	.st6{fill:#FFFDFD;}
	.st7{fill:none;stroke:#FFFFFF;stroke-miterlimit:10;}
	.st8{fill:none;stroke:#0A0A0A;stroke-miterlimit:10;}
	.st9{fill:#0A0A0A;}
	.st10{stroke:#FFFFFF;stroke-miterlimit:10;}
	.st11{display:none;}
	.st12{fill:#145178;}
	.st13{fill:#111110;}
	.st14{fill:#FFFFFD;}
	.st15{fill:#282525;}
	.st16{fill:#262626;}
</style>
<g id="RANDO">
	<g id="Calque_16">
	</g>
	<g id="Calque_14">
	</g>
	<g id="Calque_15">
	</g>
</g>
<g id="SKI_ALPIN">
</g>
<g id="SNOW">
	<g id="Calque_9">
	</g>
	<g id="Calque_12">
	</g>
	<g id="Calque_10">
	</g>
	<g>
		<path class="st4" d="M45.1,24.6c0-1.7-0.1-7-0.4-8.7c-0.2-0.8-1-3-1.3-3.7c-0.7-1.8-2.8-3.5-4.5-4.4c-1.7-0.9-3.6-1.3-5.5-1.4
			c-2.6-0.1-6.1,1-8.2,2.7c-2.1,1.7-3.3,4.1-4.1,6c-0.8,1.9-0.8,9.1-0.5,11.1c0,0,1.4,45.1,1.4,49.2c0.3,22.5-2.2,44-1.9,46.7
			c0.3,3.9-0.7,7.4,4.9,12c4,3.4,11.6,2.2,14.4,0.7c3-1.6,5.6-4.5,5.6-11.1c0-4.4-2.1-38.7-1.6-52.5C43.7,67.3,45.1,26.5,45.1,24.6z
			"/>
	</g>
	<g>
		<path d="M65.3,95.8c-0.2-0.9-0.8-1.8-1.7-2.3c-0.7-0.3-1.5-0.3-2.2-0.3c-0.8,0-1.6,0.1-2.4,0.3c-2,0.5-3.5,1.6-5.1,3
			c-0.3,0.2-0.8,0.6-0.8,1v0.2c0.6,3.4,0.9,6.9,0.7,10.4c-0.2,4.2-1,8.5,0.2,12.6c0,0.1,0.1,0.3,0.3,0.4c0.1,0,0.2,0,0.3-0.1
			c0.4-0.4,0.7-0.6,1-0.9c0.2-0.3,0.1-0.2,0-0.6c0-0.1-0.1-0.3-0.1-0.4c0-0.2,0.2-0.3,0.4-0.4c0.2-0.2,0.1-0.5,0.1-0.8
			c0.1-0.6,0.7-0.9,1.1-1.3c0.9-0.9,2.2-2.8,2.7-3.2c0.6-0.5,0.8-0.9,1.5-1.3c0.7-0.4,1.4-0.7,1.8-1.4c0.4-0.7,0.3-1.6,0.3-2.5
			c0-3.3,1.4-6.3,2-9.6C65.4,97.8,65.5,96.8,65.3,95.8z M55.8,112.8c-0.1,0.8-0.4,1.6-0.9,2.2l-0.1,0.1c0.1-1.7,0.2-3.4,1.1-4.8
			C55.9,111.2,55.9,112,55.8,112.8z M56,107.1c-0.2,0.2-0.3,0.5-0.5,0.7l-0.1,0c0-0.6,0-0.8,0-1.2c0-0.2-0.1-1-0.1-1.5
			c0.2,0.5,0.5,1.1,0.6,1.6c0,0.1,0,0.1,0,0.2C56.1,107,56,107,56,107.1z M57.2,97.7c0-0.1,0.1-0.2,0.2-0.2c0.6-0.4,0.8-0.4,1.4-0.7
			c0.3-0.1,1.2-0.4,1.4-0.5c0.6-0.2,1.3-0.4,1.7-0.4c-1,1.1-1.6,2.4-2.3,3.7c-0.6,1-1.1,2.1-1.7,3.1c-0.3-1.6-0.5-3.2-0.7-4.9
			C57.2,97.8,57.2,97.8,57.2,97.7z M59.2,110.7c0,0.1,0,0.2-0.1,0.3c0,0.1-0.4,0.4-0.5,0.5c-0.3,0.3-1,0.9-1.9,1.5
			c0.3-0.7,0.4-1.5,0.7-2.5c0.1-0.6,0.3-3,0.3-3.4l0.6-0.7c1-1.1,1.4-1.6,2.3-2.9C60.1,105.9,59.6,108.3,59.2,110.7z M63,106
			c-0.1,0.6-0.3,1.2-0.5,1.8c-0.2,0.6-0.7,1.2-1.3,1.4c0.5-2.4,1.4-4.8,2.6-7C63.6,103.7,63.1,105.5,63,106z"/>
	</g>
	<g>
		<path d="M53.3,115.6c-0.5,0.7-0.7,1.6-0.6,2.5c0,0.1,0,0.2,0,0.3c0,0.1,0,0.2-0.1,0.3c-0.3,0.9,0,1.9,0.5,2.7
			c0.1,0.2,0.3,0.8,0.5,0.8c0.2,0,1-0.5,1-0.7s-0.6-0.3-0.7-0.5C53.5,119.2,53.3,117.3,53.3,115.6"/>
	</g>
	<g>
		<path d="M55.6,119c0.2,0.5,0.3,0.6,0.4,0.9c0.1,0.1,1.2,1.7,1.3,1.9c0.5,0.8,1.1,1.6,1.9,2c0.6,0.3,1.4,0.3,2.1,0.3
			c3.1-0.2,6.2-1.2,8.8-3c1.2-0.9,2.4-1.9,3.7-2.6c0.6-0.3,1.3-0.5,1.9-0.2c0.5,0.4,0.6,1.2,0.2,1.8s-1,0.9-1.6,1.1
			c-1.1,0.3-2.4,0.3-3.5,0c-0.3-0.1-0.6-0.1-0.8,0.1c1.8,0.9,3.9,0.5,5.8-0.1c0.4-0.1,0.9-0.3,1.2-0.6c0.4-0.5,0.3-1.3,0.1-2
			c-0.5-1.8-1.2-3.6-2-5.3c-0.4-0.9-0.8-1.8-1.3-2.6c-0.1-0.2-0.3-0.5-0.6-0.6c-0.2-0.1-0.5-0.1-0.8-0.1c-0.9,0.1-1.8,0.2-2.7,0.2
			c-1.9,0.2-3.9,0.3-5.8,0.7c-1,0.2-2,0.5-2.9,1c-0.8,0.5-1.4,1.1-2.1,1.8c-0.6,0.6-1.1,1.2-1.6,1.9c-0.2,0.3-0.4,0.7-0.6,0.9
			c-0.2,0.2-0.3,0.2-0.4,0.3c-0.2,0.2-0.6,0.4-0.7,0.7c-0.2,0.5-0.5,1.4-0.7,1.9"/>
	</g>
	<path class="st0" d="M55.6,119c0.1-1,0.9-1.9,1.7-2.5c0.5-0.3,1-0.5,1.5-0.7c0.5-0.2,1-0.4,1.4-0.6c0.5-0.1,0.9-0.3,1.4-0.4
		c0.4-0.1,0.8-0.2,1.1,0c0.3,0.2,0.4,0.6,0.5,0.9c0.2,0.4,0.3,0.8,0.3,1.2c0.1,0.4,0,0.8-0.3,1.1c-0.5,0.6-1.2,0.9-1.9,1.3
		c-0.8,0.5-1.5,1-2.3,1.5c-0.4,0.3-0.8,0.5-1.1,0.8c-0.1,0.1-0.1,0.1-0.2,0.2c-0.1,0.1-0.2,0.1-0.3,0c-0.2-0.1-0.3-0.3-0.4-0.5
		c0,0.1,0,0.1,0,0.2c0.4-0.2,0.8-0.4,1.1-0.7c0.1-0.1,0.1-0.3,0.1-0.4c-0.1-0.2-0.2-0.4-0.3-0.6c-0.4-0.9-0.8-1.7-1.3-2.6
		c0,0-0.1-0.1-0.1-0.1c-0.3,0.1-0.5,0.5-0.7,0.8c-0.2,0.3-0.4,0.6-0.6,1C55.3,119.1,55.5,119.2,55.6,119c0.2-0.2,0.3-0.5,0.5-0.8
		c0.1-0.2,0.2-0.3,0.3-0.5c0.1-0.1,0.2-0.3,0.3-0.3c0,0-0.1,0-0.1-0.1c0.4,0.7,0.8,1.4,1.1,2.2c0.1,0.2,0.2,0.4,0.3,0.6
		c0.1,0.2,0.3,0.4,0.1,0.6c-0.1,0.1-0.4,0.3-0.5,0.4c-0.2,0.1-0.3,0.2-0.5,0.3c-0.1,0-0.1,0.1,0,0.2c0.1,0.2,0.2,0.3,0.3,0.4
		c0.1,0.1,0.2,0.2,0.4,0.3c0.1,0,0.2-0.1,0.3-0.2c0.2-0.2,0.4-0.3,0.6-0.5c0.7-0.5,1.5-1.1,2.3-1.5c0.7-0.4,1.5-0.8,2.2-1.4
		c0.3-0.2,0.6-0.5,0.7-0.9c0.1-0.4,0.1-0.8,0-1.2c-0.1-0.4-0.2-0.8-0.4-1.2c-0.1-0.3-0.3-0.6-0.6-0.8c-0.6-0.4-1.4,0-2,0.2
		c-1.2,0.4-2.3,0.8-3.4,1.4c-1,0.6-1.9,1.6-2.1,2.8C55.3,119.2,55.6,119.2,55.6,119L55.6,119z"/>
	<path class="st0" d="M57.1,117c0.3,0.9,0.7,1.7,1.1,2.5c0.1,0.2,0.2,0.4,0.3,0.5c0.1,0.2,0.2,0.4,0.4,0.5c0.1,0.1,0.3,0.1,0.4,0
		c0.2-0.1,0.4-0.3,0.6-0.4c0.2-0.1,0.4-0.3,0.6-0.4c0.1-0.1,0.3-0.2,0.4-0.3c0.1-0.2,0-0.3,0-0.5c0-0.2-0.1-0.5-0.2-0.7
		c-0.1-0.4-0.3-0.8-0.5-1.2c-0.1-0.2-0.2-0.4-0.3-0.6c-0.1-0.2-0.2-0.4-0.3-0.5c-0.2-0.1-0.4,0-0.5,0c-0.2,0.1-0.5,0.1-0.7,0.2
		c-0.4,0.2-0.9,0.5-1.3,0.7c-0.1,0.1,0,0.3,0.1,0.2c0.6-0.4,1.2-0.8,1.9-0.9c0.1,0,0.2-0.1,0.3,0c0.1,0,0.2,0.1,0.2,0.2
		c0.1,0.2,0.2,0.4,0.3,0.6c0.2,0.4,0.4,0.7,0.5,1.1c0.1,0.4,0.3,0.7,0.3,1.1c0,0.2,0,0.3-0.2,0.4c-0.2,0.1-0.4,0.2-0.5,0.3
		c-0.2,0.1-0.3,0.2-0.5,0.3c-0.1,0.1-0.2,0.1-0.3,0.2c-0.1,0-0.1,0-0.1,0c-0.1,0-0.1-0.1-0.2-0.1c-0.2-0.3-0.4-0.6-0.6-0.9
		c-0.4-0.7-0.8-1.5-1-2.3C57.3,116.8,57.1,116.9,57.1,117L57.1,117z"/>
	<path class="st0" d="M60,115.8c0.3,0.9,0.7,1.8,1,2.7c0.1,0.3,0.2,0.7,0.5,0.8c0.2,0,0.3-0.1,0.5-0.1c0.2-0.1,0.4-0.2,0.6-0.3
		c0.3-0.2,0.6-0.5,0.8-0.8c0.2-0.3,0.1-0.7,0-1.1c-0.1-0.4-0.3-0.8-0.5-1.1c-0.1-0.2-0.2-0.3-0.3-0.5c-0.1-0.1-0.2-0.3-0.4-0.4
		c-0.2-0.1-0.4,0-0.6,0c-0.2,0.1-0.5,0.1-0.7,0.2C60.7,115.3,60.1,115.3,60,115.8c0,0.1,0.2,0.1,0.3,0c0-0.2,0.3-0.2,0.4-0.2
		c0.2,0,0.3-0.1,0.5-0.1c0.2,0,0.3-0.1,0.5-0.1c0.2,0,0.4-0.2,0.6-0.1c0.1,0.1,0.2,0.2,0.3,0.4c0.1,0.1,0.2,0.3,0.3,0.4
		c0.2,0.3,0.3,0.6,0.4,0.9c0.1,0.3,0.2,0.7,0,1c-0.2,0.3-0.5,0.5-0.7,0.7c-0.1,0.1-0.2,0.2-0.4,0.2c-0.1,0.1-0.3,0.2-0.5,0.2
		c-0.2,0-0.2-0.3-0.3-0.4c-0.1-0.2-0.1-0.3-0.2-0.5c-0.3-0.8-0.6-1.5-0.9-2.3C60.2,115.6,60,115.6,60,115.8L60,115.8z"/>
	<path class="st0" d="M63.3,115.3c0.2-0.1,0.4-0.2,0.7-0.2c0-0.1-0.1-0.1-0.1-0.2c-0.1,0.1-0.1,0.2-0.1,0.3c0,0.1,0.1,0.2,0.2,0.1
		c0.3-0.2,0.6-0.4,0.9-0.6c-0.1,0-0.1,0-0.2-0.1c0,0.1,0,0.1,0.1,0.2c0,0.1,0.1,0.1,0.2,0.1c0.3-0.3,0.6-0.5,1-0.7
		c-0.1,0-0.1-0.1-0.2-0.1c0,0.1,0,0.2,0,0.3c0,0.1,0.1,0.2,0.2,0.1c0.3-0.2,0.6-0.4,1-0.6c-0.1,0-0.1-0.1-0.2-0.1c0,0.1,0,0.1,0,0.2
		c0,0.1,0.1,0.2,0.2,0.1c0.2-0.2,0.5-0.3,0.7-0.5c-0.1,0-0.1,0-0.2-0.1c0,0.1,0,0.1,0,0.2c0,0.1,0.1,0.1,0.2,0.1
		c0.5-0.2,0.9-0.5,1.4-0.7c-0.1-0.1-0.1-0.1-0.2-0.2c0,0.1-0.1,0.2-0.2,0.3c-0.1,0.1,0,0.3,0.1,0.2c0.3-0.1,0.7-0.3,1-0.5
		c0-0.1-0.1-0.1-0.1-0.2c-0.2,0.1-0.1,0.4,0.2,0.3c0.1,0,0.3-0.2,0.4-0.2c0.2-0.1,0.4-0.1,0.6-0.1c0.4,0,0.8,0,1.2,0.1
		c0.4,0,0.8,0,1.1,0.3c0.1,0.1,0.2,0.3,0.3,0.4c0,0.1,0.1,0.1,0.1,0.2c0.1,0.1,0,0.2-0.1,0.3c-0.3,0.2-0.6,0.4-0.9,0.6
		c-0.6,0.4-1.3,0.7-2.1,0.8c-0.1,0-0.3,0-0.3,0.1c0,0.1,0,0.1-0.2,0.1c-0.1,0-0.2,0-0.3,0c-0.3,0-0.4,0.3-0.3,0.6
		c0-0.1,0.1-0.1,0.1-0.2c-0.3,0-0.6,0-0.9,0.1c-0.1,0-0.2,0.1-0.2,0.1c-0.1,0.1-0.2,0.1-0.4,0.1c-0.2,0-0.4,0-0.5,0.2
		c0,0,0,0.1,0,0.1c-0.1,0.1-0.1,0.1-0.2,0.1c-0.2,0-0.3,0-0.5,0c-0.1,0-0.1,0.1-0.1,0.2c0.1,0.2-0.5,0.1-0.6,0.1
		c-0.1,0-0.3,0-0.4,0.1c-0.1,0.1,0,0.3-0.2,0.3c-0.1,0-0.3,0-0.5,0c-0.1,0-0.2,0-0.3,0.1c0,0-0.1,0.1-0.1,0.1
		c-0.1,0.1-0.1,0.1-0.2,0.1c-0.1,0-0.2-0.1-0.4,0c-0.1,0.1-0.1,0.2-0.1,0.3c0-0.1,0.1-0.1,0.1-0.2c-0.2,0.1-0.3,0.1-0.5,0
		c0,0.1,0,0.1,0.1,0.2C64.2,117.2,63.7,116.1,63.3,115.3c0,0,0,0.1,0,0.1C63.3,115.4,63.3,115.3,63.3,115.3c0.2-0.1,0-0.3-0.1-0.2
		c0,0-0.1,0.1-0.1,0.1c0,0,0,0.1,0,0.1c0.4,0.8,0.9,1.8,0.4,2.7c0,0.1,0,0.2,0.1,0.2c0.2,0.1,0.4,0.1,0.6,0c0.1,0,0.1-0.1,0.1-0.2
		c0,0,0.2,0,0.2,0c0.1,0,0.1,0,0.2,0c0.2-0.1,0.1-0.2,0.2-0.3c0.1-0.1,0.3,0,0.4,0c0.1,0,0.3,0,0.4-0.1c0,0,0.1-0.1,0.1-0.1
		c0-0.1,0-0.1,0-0.2c0.1-0.1,0.5,0,0.6,0c0.3,0,0.5-0.2,0.4-0.5c0,0.1-0.1,0.1-0.1,0.2c0.2,0,0.3,0,0.5,0c0.1,0,0.2,0,0.3,0
		c0.1,0,0.1-0.1,0.1-0.2c0-0.1,0-0.1,0.1-0.2c0.1,0,0.1,0,0.2,0c0.2,0,0.3,0,0.5-0.2c0.1-0.1,0.3-0.1,0.5-0.1c0.2,0,0.3,0,0.5-0.1
		c0.1,0,0.2-0.1,0.1-0.2c-0.1-0.3,0.3-0.2,0.4-0.2c0.1,0,0.2,0,0.3-0.1c0,0,0-0.1,0-0.1c0.1-0.1,0.2,0,0.2,0c0.2,0,0.3,0,0.5-0.1
		c0.7-0.2,1.3-0.5,1.9-0.9c0.1-0.1,0.3-0.2,0.4-0.3c0.1-0.1,0.3-0.2,0.3-0.3c0.2-0.2,0-0.5-0.1-0.7c-0.1-0.3-0.3-0.5-0.5-0.7
		c-0.3-0.2-0.7-0.2-1-0.2c-0.4,0-0.8-0.1-1.3-0.1c-0.2,0-0.4,0-0.5,0.1c-0.1,0-0.1,0-0.2,0.1c0,0-0.1,0-0.1,0.1c0,0,0,0-0.1,0
		c-0.1,0-0.1,0.1,0,0.2c0.1-0.1,0-0.3-0.1-0.2c-0.3,0.2-0.7,0.3-1,0.5c0,0.1,0.1,0.1,0.1,0.2c0.1-0.1,0.2-0.2,0.3-0.4
		c0-0.1-0.1-0.2-0.2-0.2c-0.5,0.2-1,0.4-1.4,0.7c0.1,0,0.1,0,0.2,0.1c0-0.1,0-0.1,0-0.2c0-0.1-0.1-0.1-0.2-0.1
		c-0.2,0.2-0.5,0.3-0.7,0.5c0.1,0,0.1,0.1,0.2,0.1c0-0.1,0-0.1,0-0.2c0-0.1-0.1-0.2-0.2-0.1c-0.3,0.2-0.6,0.4-1,0.6
		c0.1,0,0.1,0.1,0.2,0.1c0-0.1,0-0.2,0-0.3c0-0.1-0.1-0.2-0.2-0.1c-0.4,0.2-0.7,0.4-1.1,0.7c0.1,0,0.1,0,0.2,0.1
		c0-0.1,0-0.1-0.1-0.2c0-0.1-0.1-0.1-0.2-0.1c-0.3,0.2-0.6,0.4-0.9,0.6c0.1,0,0.1,0.1,0.2,0.1c0-0.1,0-0.1,0-0.2
		c0.1-0.1,0-0.2-0.1-0.2c-0.3,0-0.6,0.1-0.8,0.3C63,115.2,63.1,115.4,63.3,115.3L63.3,115.3z"/>
	<path class="st0" d="M66.3,110.8c0.6,0.7,1,1.7,1,2.6c0,0.2,0.2,0.2,0.2,0c0-1-0.4-2-1.1-2.8C66.3,110.5,66.2,110.6,66.3,110.8
		L66.3,110.8z"/>
	<path class="st0" d="M68.5,116.7c0.8,1.3,1.3,2.8,1.4,4.4c0,0.2,0.3,0.2,0.2,0c-0.1-1.6-0.6-3.2-1.5-4.5
		C68.6,116.4,68.4,116.5,68.5,116.7L68.5,116.7z"/>
	<g>
		<path d="M52.5,117.8c-1,0.3-1.6,1.3-1.8,2.3c-0.2,1,0,2,0.2,3c0.1,0.7,0.3,1.5,0.6,2.2c0.6,1.3,1.8,2.1,2.5,3.3
			c0.7,1.2,1,2.7,2.1,3.6c0.5,0.4,1,0.6,1.6,0.7c1,0.2,2.1,0.2,3.1,0.3c2,0.2,4.1,0.7,5.9,1.6c1.8,0.8,3.4,2,5.3,2.4
			c1.3,0.3,2.6,0.2,3.9,0.1c2.2-0.2,4.5-0.5,6.7-1.1c1-0.2,2-0.5,2.9-1.1c1-0.7,1.6-1.7,2.3-2.6c0.1-0.1,0.2-0.3,0.2-0.5
			c0-0.1-0.1-0.3-0.2-0.4c-0.3-0.4-0.7-0.8-1-1.2c1.4-0.6,2.7-1.5,3.8-2.6c0.1-0.1,0.2-0.2,0.2-0.3c0.1-0.4-0.4-0.6-0.6-0.8
			c-0.4-0.4-0.3-1.1-0.3-1.8c0.1-0.8,0-1.6-0.6-2.1s-1.6-0.6-2,0.1c-0.2,0.4-0.2,0.9-0.6,1.2c-0.3-0.9-0.8-1.8-1.6-2.2
			c-0.9-0.5-1.9-0.3-2.8,0c-3.1,0.9-5.9,2.7-8.2,4.9c-2.1-0.5-4-1.8-5.2-3.6c-0.2-0.3-0.4-0.6-0.7-0.6c-0.2,0-0.4,0.1-0.5,0.2
			c-1.3,0.6-3,0.9-4.5,1.2c-0.1,0,1.1,1.5,1.7,2.8c0.5,1.1,0.6,1.9,0.6,1.9c-0.2-0.1-0.5-0.5-0.7-0.7c-0.4-0.3-0.7-0.3-1.3-0.3
			c-1.4,0-3,0.4-3.1,0.5c-0.7,0.5-3.2-2.2-3.7-2.6c-0.4-0.4-0.7-1-1.6-1.7c-0.8,0.1-1.3-0.8-1.5-1.5c-0.3-0.7-0.3-1.5-0.3-2.3
			C53.2,119.2,53,118.4,52.5,117.8"/>
	</g>
	<path class="st0" d="M52.2,123.7c-0.3,0.1-0.6,0.3-0.7,0.7c-0.1,0.3,0.1,0.7,0.3,1c0.1,0.1,0.3,0.2,0.5,0.2c0.2,0,0.3-0.1,0.4-0.3
		c0.1-0.2,0.1-0.4,0.2-0.5c0-0.2,0-0.3-0.1-0.5c-0.1-0.1-0.1-0.2-0.2-0.3C52.6,123.8,52.4,123.7,52.2,123.7c-0.1,0-0.1,0.3,0,0.2
		c0.1,0,0.2,0.1,0.3,0.1c0.1,0.1,0.1,0.1,0.2,0.2c0.1,0.2,0.1,0.5,0,0.7c0,0.1-0.1,0.2-0.2,0.3c-0.1,0.1-0.3,0-0.4-0.1
		c-0.2-0.2-0.3-0.4-0.3-0.7c0-0.3,0.2-0.5,0.5-0.6C52.4,123.9,52.4,123.7,52.2,123.7L52.2,123.7z"/>
	<path class="st0" d="M51.8,124.4C51.8,124.4,51.8,124.4,51.8,124.4C51.8,124.4,51.8,124.4,51.8,124.4
		C51.8,124.4,51.8,124.4,51.8,124.4c0.1-0.1,0.1-0.1,0.1-0.1c0,0,0,0,0,0c0,0,0,0,0,0c0,0,0,0,0,0c0,0,0,0,0,0c0,0,0,0,0,0
		c0,0,0,0,0,0c0,0,0,0,0,0c0,0,0,0,0,0c0,0,0,0,0,0c0,0,0,0,0,0c0,0,0,0,0,0c0,0,0,0,0,0c0,0,0,0,0,0c0,0,0,0,0,0c0,0,0,0,0,0
		c0,0,0,0,0,0c0,0,0,0,0,0c0,0,0,0,0,0c0,0,0,0,0,0c0,0,0,0,0,0c0,0,0,0,0,0.1c0,0,0,0,0,0c0,0,0,0,0,0c0,0,0,0,0,0.1c0,0,0,0,0,0
		c0,0,0,0,0,0c0,0,0,0,0,0.1c0,0,0,0,0,0c0,0,0,0,0,0c0,0,0,0,0,0.1c0,0,0,0,0,0c0,0,0,0,0,0c0,0,0,0,0,0c0,0,0,0,0,0c0,0,0,0,0,0
		c0,0,0,0,0,0c0,0,0,0,0,0c0,0,0,0,0,0c0,0,0,0,0,0c0,0,0,0,0,0c0,0,0,0,0,0c0,0,0,0-0.1,0c0,0,0,0,0,0c0,0,0,0,0,0c0,0,0,0,0,0
		c0,0,0,0,0,0c0,0,0,0,0,0c0,0,0,0,0,0c0,0,0,0,0,0c0,0,0,0,0,0c0,0,0,0,0,0c0,0,0,0,0,0c0,0,0,0,0,0c0,0,0,0,0,0c0,0,0,0,0,0
		c0,0,0,0,0-0.1c0,0,0,0,0-0.1C51.8,124.5,51.8,124.5,51.8,124.4C51.8,124.5,51.8,124.5,51.8,124.4c0,0,0-0.1,0.1-0.1
		c0-0.1,0-0.1-0.1-0.2c-0.1,0-0.1,0-0.2,0.1c0,0.2-0.1,0.5,0,0.7c0.1,0.2,0.3,0.3,0.5,0.2c0.2-0.1,0.3-0.3,0.3-0.5
		c0-0.2-0.1-0.4-0.3-0.5c-0.1-0.1-0.2-0.1-0.3,0c-0.1,0-0.2,0.1-0.3,0.2c0,0.1,0,0.1,0,0.2C51.7,124.5,51.7,124.5,51.8,124.4
		L51.8,124.4z"/>
	<path class="st0" d="M60.1,132c0,0.2,0,0.4,0,0.6c0,0.1,0,0.2,0,0.3c0,0.1,0,0.1,0,0.2c0,0,0,0.1,0,0.1c0,0,0,0,0,0
		c-0.1,0-0.1,0.1,0,0.2c0,0.1,0.1,0.1,0.2,0c0.1-0.1,0.1-0.2,0.1-0.3c0-0.1,0-0.2,0-0.4c0-0.2,0-0.5,0-0.7
		C60.3,131.8,60.1,131.8,60.1,132L60.1,132z"/>
	<path class="st0" d="M60.3,132c0.4-0.1,0.8,0,1.1,0c0.4,0,0.8,0.1,1.2,0.2c0.2,0,0.2-0.2,0.1-0.2c-0.4-0.1-0.8-0.1-1.2-0.2
		c-0.4,0-0.8-0.1-1.2,0C60.1,131.8,60.2,132.1,60.3,132L60.3,132z"/>
	<path class="st0" d="M60.4,133.2c-0.2-0.3-0.4-0.5-0.6-0.8c-0.1-0.1-0.2-0.3-0.3-0.4c0-0.1-0.1-0.1-0.1-0.2c0,0,0,0,0-0.1
		c0,0,0,0,0,0c0,0,0.1-0.1,0.1-0.1c0.5-0.3,1.1-0.5,1.7-0.5c0.2,0,0.2-0.2,0-0.2c-0.7,0-1.4,0.2-1.9,0.6c-0.2,0.1-0.1,0.2,0,0.4
		c0.1,0.2,0.2,0.3,0.3,0.5c0.2,0.3,0.4,0.6,0.7,0.9C60.2,133.4,60.5,133.3,60.4,133.2L60.4,133.2z"/>
	<path class="st0" d="M62.8,131.2c1.3,0.1,2.6,0.3,3.9,0.7c1.3,0.4,2.5,0.9,3.5,1.8c0.1,0.1,0.3-0.1,0.2-0.2c-1-0.9-2.3-1.5-3.6-1.9
		c-1.3-0.4-2.7-0.7-4-0.8C62.6,130.9,62.6,131.2,62.8,131.2L62.8,131.2z"/>
	<path class="st0" d="M51.8,126.3c0.5,0.6,1.4,0.9,2.1,1.1c1.1,0.4,2.1,0.8,3.2,1.3c1,0.5,2.1,1,3,1.6c0.9,0.6,1.7,1.2,2.4,2
		c0.8,0.7,1.6,1.5,2.4,2.3c0.1,0.1,0.3-0.1,0.2-0.2c-1.4-1.3-2.8-2.8-4.4-4c-0.9-0.6-2-1.1-3-1.6c-1-0.5-2-1-3.1-1.4
		c-0.5-0.2-1-0.3-1.4-0.5c-0.4-0.2-0.9-0.4-1.2-0.7C51.8,126,51.6,126.1,51.8,126.3L51.8,126.3z"/>
	<path class="st0" d="M59.9,128.8c1.2,1,2.4,2,3.6,3c1.1,0.9,2.2,1.9,3.2,2.8c0.6,0.5,1.2,1,1.8,1.4c0.1,0.1,0.3-0.1,0.1-0.2
		c-1.1-0.7-2.1-1.7-3.2-2.5c-1.1-1-2.3-1.9-3.4-2.9c-0.7-0.6-1.4-1.1-2-1.7C59.9,128.5,59.7,128.7,59.9,128.8L59.9,128.8z"/>
	<path class="st0" d="M73.9,127.3c0,0.3,0.1,0.6,0.3,0.9c0-0.1,0-0.1,0.1-0.2c-0.2,0-0.4,0.2-0.4,0.4c0,0.3,0.1,0.5,0.3,0.6
		c0.5,0.5,1.1,0.9,1.7,1.4c0.5,0.4,1,0.9,1.7,1c0.6,0.1,1.3-0.1,1.8-0.3c1.2-0.5,2.2-1.4,3.4-1.9c0.3-0.1,0.6-0.3,1-0.3
		c0.2,0,0.3-0.1,0.5,0c0.1,0.1,0.2,0.1,0.4,0.1c0.3,0,0.6-0.2,0.9-0.3c0.3-0.2,0.6-0.3,1-0.5c1.4-0.7,3-1,4.5-0.7
		c0.2,0,0.2-0.2,0.1-0.2c-1.2-0.2-2.4-0.2-3.5,0.2c-0.6,0.2-1.2,0.5-1.8,0.8c-0.3,0.1-0.6,0.4-0.9,0.4c-0.2,0.1-0.3,0-0.5-0.1
		c-0.1-0.1-0.2-0.1-0.4-0.1c-0.6,0.1-1.1,0.3-1.6,0.6c-0.5,0.3-1,0.6-1.6,0.9c-1,0.6-2.4,1.6-3.6,1c-0.3-0.2-0.6-0.4-0.9-0.6
		c-0.3-0.3-0.6-0.5-0.9-0.8c-0.3-0.3-0.6-0.5-0.9-0.8c-0.1-0.1-0.2-0.2-0.3-0.3c-0.1-0.2,0-0.4,0.2-0.4c0.1,0,0.1-0.1,0.1-0.2
		c-0.2-0.2-0.3-0.4-0.3-0.7C74.2,127.2,73.9,127.2,73.9,127.3L73.9,127.3z"/>
	<path class="st0" d="M81.7,124.3C81.7,124.3,81.8,124.3,81.7,124.3c0.1,0,0.1-0.1,0.2-0.1c0.1,0,0.2-0.1,0.2-0.1c0,0,0,0,0,0
		c0,0,0.1,0,0.1,0c0.1,0,0.1,0,0.2,0c0.1,0,0-0.1,0.1,0c0.1,0,0.1,0.1,0.2,0c0.1,0,0.1-0.1,0.1-0.1c0,0,0-0.1,0-0.1
		c0,0-0.1,0.1-0.1,0.1c0,0,0.1,0,0.1,0c0.1,0,0.2,0,0.2-0.1c0,0,0.2,0.1,0.2,0.1c0,0,0.1,0,0.1,0c0.1,0,0.1,0,0.1,0.1
		c0.1,0.1,0.1,0.1,0.2,0.1c0,0,0.1,0,0.1,0c0,0,0.1,0,0.1,0c0.1,0.1,0.3-0.1,0.2-0.2c-0.1-0.1-0.2-0.1-0.3,0c-0.1,0-0.1,0-0.1-0.1
		c-0.1,0-0.1-0.1-0.2-0.1c-0.1,0-0.1,0-0.2-0.1c-0.1,0-0.1-0.1-0.2-0.1c-0.1,0-0.3,0.1-0.3,0.2c0.1,0,0.1-0.1,0.2-0.1
		c-0.1-0.1-0.2-0.1-0.3,0c-0.1,0-0.1,0.1-0.1,0.1c0,0,0,0.1,0,0.1c0,0,0.1-0.1,0.1-0.1c-0.1,0-0.1-0.1-0.2-0.1c-0.1,0-0.1,0-0.2,0.1
		c-0.1,0-0.1,0-0.2,0c0,0-0.1,0-0.1,0c-0.1,0-0.4,0.2-0.5,0.3C81.5,124.4,81.7,124.4,81.7,124.3L81.7,124.3z"/>
	<path class="st0" d="M83.3,123.7c0.9,0.6,1.8,1.2,2.3,2.3c0.1,0.1,0.3,0.1,0.2-0.1c-0.5-1.1-1.4-1.8-2.4-2.4
		C83.3,123.4,83.2,123.6,83.3,123.7L83.3,123.7z"/>
	<path class="st0" d="M83.5,123.6c0.3-0.3,0.8-0.4,1.2-0.4c0.2,0,0.4-0.1,0.6-0.1c0.3,0,0.5,0.3,0.6,0.4c0.3,0.3,0.7,0.6,1,1
		c0.3,0.3,0.6,0.6,0.8,1c0-0.1,0.1-0.1,0.1-0.2c-0.8,0-1.6,0.1-2.4,0.4c-0.1,0.1-0.1,0.3,0.1,0.2c0.7-0.3,1.5-0.4,2.3-0.4
		c0.1,0,0.1-0.1,0.1-0.2c-0.2-0.4-0.5-0.8-0.9-1.1c-0.4-0.4-0.9-0.8-1.3-1.2c-0.2-0.2-0.3-0.2-0.6-0.2c-0.2,0-0.5,0-0.7,0.1
		c-0.5,0.1-0.9,0.2-1.3,0.5C83.2,123.5,83.4,123.7,83.5,123.6L83.5,123.6z"/>
	<path class="st0" d="M85.5,125.5c-0.1,0-0.3-0.2-0.4-0.2c-0.1,0-0.2,0-0.3,0.1c0,0-0.1,0,0,0c0,0-0.1-0.1-0.1-0.1
		c-0.1,0-0.1-0.1-0.2-0.1c-0.1,0-0.3,0.1-0.3,0.2c0.1,0,0.1,0,0.2-0.1c-0.1,0-0.2-0.1-0.3-0.1c-0.1,0-0.2,0-0.2,0.1
		c0,0.2-0.2,0.1-0.4,0.1c-0.1,0-0.2,0-0.2,0.1c-0.1,0.1-0.2,0.3-0.3,0.2c-0.1,0-0.1-0.1-0.2-0.1c-0.1,0-0.1,0.1-0.1,0.2
		c-0.1,0.2-0.2,0.1-0.4,0.1c-0.2,0-0.4,0.3-0.3,0.5c0.1,0,0.1-0.1,0.2-0.1c-0.3,0-0.6,0-0.6,0.3c0.1,0,0.1-0.1,0.2-0.1
		c-0.3-0.1-0.6,0.1-0.6,0.4c0.1,0,0.1-0.1,0.2-0.1c-0.2-0.1-0.3,0-0.5,0.1c0,0,0,0.1-0.1,0.1c0,0,0,0,0,0c-0.1,0-0.2,0-0.2,0.1
		c-0.1,0-0.1,0.1-0.1,0.1c-0.1,0-0.2,0-0.2,0.1c-0.1,0-0.3,0-0.4,0.2c-0.1,0.1,0.1,0.3,0.2,0.2c0.1-0.1,0.3-0.1,0.4-0.1
		c0.1,0,0.2-0.1,0.3-0.1c0.1,0,0.2,0,0.3-0.1c0.1-0.1,0.2-0.3,0.4-0.2c0.1,0,0.2,0,0.2-0.1c0-0.1,0.1-0.2,0.2-0.1
		c0.1,0,0.2,0,0.2-0.1c0-0.1,0.2-0.1,0.3-0.1c0.1,0,0.2,0,0.2-0.1c0-0.3,0.4-0.2,0.6-0.3c0.1,0,0.1-0.1,0.1-0.2c0,0,0-0.1,0-0.1
		c0,0,0,0,0,0c0,0,0-0.1,0,0c0,0-0.1,0-0.1,0c0.1,0.1,0.3,0.2,0.4,0.1c0.1,0,0.1,0,0.2-0.1c0.1,0,0.1-0.2,0.2-0.2c0.1,0,0.2,0,0.2,0
		c0.1,0,0.1,0,0.2,0c0.2-0.1,0.2-0.2,0.2-0.4c-0.1,0-0.1,0.1-0.2,0.1c0.1,0,0.2,0.1,0.3,0.1c0.1,0,0.2,0,0.2-0.1
		c0-0.1,0.2,0.1,0.2,0.1c0,0,0.1,0,0.1,0c0.1,0,0.1-0.1,0.2-0.1c0.1,0,0.2,0.1,0.2,0.2c0.1,0.1,0.2,0.1,0.3,0
		C85.7,125.7,85.6,125.5,85.5,125.5L85.5,125.5z"/>
	<path class="st0" d="M82.6,126.1c0.1,0.2,0.3,0.3,0.4,0.4c0.2,0.1,0.4,0.2,0.6,0.2c0.3,0,0.6-0.1,0.9-0.2c0.3-0.1,0.7-0.2,1-0.3
		c0.2,0,0.1-0.3-0.1-0.2c-0.3,0.1-0.6,0.2-0.9,0.2c-0.3,0.1-0.6,0.2-0.9,0.2c-0.2,0-0.4,0-0.6-0.1c-0.1-0.1-0.3-0.2-0.4-0.3
		C82.8,125.8,82.6,125.9,82.6,126.1L82.6,126.1z"/>
	<path class="st0" d="M76.9,130.9c-0.1-0.1-0.1-0.5,0-0.7c0.1-0.2,0.3-0.4,0.5-0.6c0.4-0.5,0.8-0.9,1.3-1.3c1-0.8,2.1-1.4,2.9-2.4
		c0.4-0.4,0.6-0.9,0.4-1.5c-0.1-0.3-0.3-0.5-0.6-0.7c-0.2-0.2-0.5-0.4-0.7-0.6c-0.6-0.3-1.2,0.1-1.7,0.4c-0.7,0.4-1.3,0.8-2,1.2
		c-1.2,0.7-2.7,1.6-2.8,3.1c0,0.2,0.2,0.2,0.2,0c0.1-1.4,1.4-2.1,2.5-2.8c0.6-0.4,1.2-0.8,1.8-1.2c0.3-0.2,0.6-0.4,0.9-0.5
		c0.3-0.2,0.7-0.2,1,0c0.5,0.3,1.1,0.8,1.2,1.5c0,0.6-0.6,1.1-1,1.5c-0.9,0.8-1.9,1.4-2.7,2.1c-0.2,0.2-0.5,0.4-0.7,0.7
		c-0.2,0.2-0.4,0.4-0.5,0.6c-0.2,0.3-0.4,0.9-0.1,1.2C76.8,131.2,77,131,76.9,130.9L76.9,130.9z"/>
	<path class="st0" d="M74.4,128.2c0.5-0.6,1-1,1.6-1.4c0.3-0.2,0.7-0.5,1.1-0.4c0.3,0.1,0.6,0.3,0.9,0.5c0.3,0.2,0.5,0.4,0.6,0.8
		c0,0.1,0,0.2-0.1,0.2c-0.1,0-0.2-0.1-0.3-0.1c-0.2-0.1-0.4-0.1-0.6-0.2c-0.3-0.1-0.6-0.1-0.9,0.1c-0.2,0.1-0.4,0.4-0.1,0.5
		c0.2,0.1,0.4,0,0.3,0.3c0,0.2-0.1,0.4-0.2,0.5c-0.2,0.4-0.5,0.7-0.8,1.1c-0.1,0.1,0.1,0.3,0.2,0.2c0.3-0.3,0.6-0.6,0.8-1
		c0.2-0.3,0.4-0.6,0.3-0.9c0-0.1-0.1-0.2-0.2-0.3c0,0-0.2,0-0.2-0.1c0-0.1,0.3-0.1,0.3-0.2c0.5-0.1,0.9,0.2,1.3,0.3
		c0.3,0.1,0.5-0.2,0.4-0.5c-0.1-0.3-0.3-0.6-0.5-0.8c-0.3-0.2-0.6-0.4-0.9-0.6c-0.4-0.2-0.7-0.1-1,0.1c-0.8,0.4-1.5,1.1-2.1,1.8
		C74.1,128.1,74.2,128.3,74.4,128.2L74.4,128.2z"/>
	<path class="st0" d="M79.6,123.9C79.6,123.9,79.6,123.8,79.6,123.9C79.6,123.9,79.6,123.9,79.6,123.9c-0.1,0.1-0.1,0.1-0.1,0.2
		c0,0.1-0.1,0.2-0.1,0.2c-0.1,0.2-0.1,0.3-0.2,0.5c-0.1,0.2-0.1,0.3-0.2,0.5c0,0.1,0,0.1-0.1,0.2c-0.1,0.1-0.1,0-0.2-0.1
		c-0.1-0.1-0.3-0.2-0.4-0.3c-0.1-0.1-0.1-0.1-0.2-0.2c0,0-0.1-0.1-0.1-0.1c0,0,0,0,0,0c0,0.1,0,0.1,0,0c0,0,0,0,0,0
		c0.1-0.1,0.2-0.2,0.4-0.2c0.1-0.1,0.2-0.2,0.4-0.2C79.1,124.2,79.4,124,79.6,123.9c0.2-0.1,0.1-0.3-0.1-0.2c-0.3,0.2-0.7,0.4-1,0.6
		c-0.2,0.1-0.3,0.2-0.5,0.3c-0.1,0.1-0.4,0.2-0.2,0.4c0,0.1,0.1,0.1,0.2,0.2c0.1,0.1,0.2,0.1,0.2,0.2c0.1,0.1,0.2,0.1,0.2,0.2
		c0.1,0.1,0.2,0.1,0.3,0.2c0.2,0.1,0.3-0.1,0.4-0.3c0.1-0.2,0.2-0.4,0.3-0.6c0.1-0.2,0.2-0.5,0.3-0.7c0-0.1,0.1-0.2,0.1-0.3
		c0-0.1-0.1-0.2-0.2-0.2C79.5,123.6,79.5,123.9,79.6,123.9L79.6,123.9z"/>
	<path class="st0" d="M80.1,124c-0.2,0.5-0.5,1-0.6,1.5c-0.1,0.2-0.2,0.5-0.1,0.7c0.1,0.2,0.2,0.4,0.4,0.5c0.2,0.1,0.4,0.1,0.6,0
		c0.2-0.2,0.4-0.4,0.6-0.6c0.2-0.2,0.4-0.4,0.5-0.6c0.1-0.2,0-0.4-0.1-0.6c-0.2-0.2-0.4-0.5-0.6-0.7C80.6,123.9,80.3,123.9,80.1,124
		c-0.1,0.1,0.1,0.3,0.2,0.2c0.2-0.2,0.4,0.3,0.5,0.4c0.1,0.1,0.2,0.2,0.3,0.3c0.1,0.1,0.2,0.2,0.2,0.3c0,0.1-0.2,0.3-0.3,0.3
		c-0.1,0.1-0.2,0.2-0.3,0.3c-0.2,0.2-0.3,0.4-0.5,0.6c-0.1,0.1-0.2,0.1-0.3,0c-0.1-0.1-0.2-0.1-0.2-0.2c-0.1-0.2,0-0.5,0.1-0.7
		c0.2-0.5,0.4-1,0.6-1.4C80.4,124,80.2,123.9,80.1,124L80.1,124z"/>
	<path class="st0" d="M74.4,129.2c-0.2,0.3-0.5,0.5-0.7,0.8c-0.2,0.3-0.5,0.5-0.6,0.8c0,0,0.1,0,0.1-0.1c-0.2-0.1-0.4,0.1-0.4,0.3
		c0,0.1,0,0.2-0.1,0.3c0,0.1-0.1,0.1-0.2,0.1c-0.1,0.1-0.1,0.1-0.1,0.2c0,0.1,0,0.3-0.1,0.4c-0.1,0.1-0.1,0-0.2,0.1
		c-0.1,0.1,0,0.2,0,0.3c0,0.1-0.1,0.1-0.1,0.2c0,0.1,0.1,0.2,0.2,0.3c0.1,0.1,0.3,0.2,0.4,0.4c0.2,0.2,0.4,0.5,0.7,0.6
		c0.2,0.1,0.4,0.3,0.7,0.2c0.3-0.1,0.3-0.4,0.4-0.7c0,0-0.1,0.1-0.1,0.1c0.1,0,0.1,0,0.2,0c0.1,0,0.1-0.1,0.1-0.2
		c0-0.1-0.1-0.2,0-0.3c0-0.1,0.2-0.1,0.2-0.1c0.1-0.1,0.1-0.2,0.1-0.3c0-0.2,0.1-0.2,0.3-0.3c0.1-0.1,0.2-0.2,0.2-0.3
		c0-0.1,0-0.2,0.1-0.2c0.1,0,0.1,0,0.2-0.1c0.1,0,0.2-0.1,0.2-0.2c0-0.1,0-0.2,0-0.2c0,0,0.2-0.1,0.2-0.1c0,0,0.1-0.1,0.1-0.1
		c0,0,0.1-0.2,0.1-0.2c0.1,0,0.2-0.1,0.1-0.2c0,0-0.1-0.1-0.1-0.1c-0.1-0.1-0.3,0-0.2,0.1c0,0,0.1,0.1,0.1,0.1
		c0-0.1,0.1-0.1,0.1-0.2c-0.2,0-0.2,0.1-0.3,0.3c-0.1,0.2-0.3,0.1-0.4,0.3c0,0.1,0,0.2,0,0.2c0,0.1-0.1,0.1-0.2,0.1
		c-0.1,0-0.3,0.1-0.3,0.3c0,0.1,0,0.2-0.1,0.3c-0.1,0-0.2,0-0.2,0.1c-0.2,0.1-0.2,0.2-0.2,0.4c0,0.1,0,0.1-0.1,0.2
		c-0.1,0-0.1,0-0.2,0.1c-0.1,0.1-0.1,0.4,0,0.5c0-0.1,0.1-0.1,0.1-0.2c-0.1,0-0.2,0-0.3,0.1c-0.1,0.1-0.1,0.2-0.1,0.3
		c-0.1,0.1-0.1,0.3-0.2,0.3c-0.1,0-0.2-0.1-0.3-0.1c-0.2-0.1-0.4-0.3-0.6-0.5c-0.2-0.2-0.4-0.4-0.6-0.6c-0.1-0.1,0-0.1,0-0.2
		c0-0.1,0-0.2,0-0.2c0-0.1,0.1-0.1,0.2-0.1c0-0.1,0.1-0.1,0.1-0.2c0-0.1,0-0.2,0-0.3c0-0.1,0.2-0.1,0.2-0.2c0.1-0.1,0.1-0.1,0.1-0.2
		c0-0.1,0-0.3,0.2-0.3c0,0,0.1,0,0.1-0.1c0.2-0.3,0.4-0.6,0.7-0.9c0.1-0.1,0.3-0.2,0.4-0.3c0.1-0.1,0.2-0.2,0.3-0.4
		C74.7,129.2,74.5,129,74.4,129.2L74.4,129.2z"/>
	<path class="st0" d="M74.9,134.6c0.5-0.1,1,0.1,1.5,0.2c0.5,0.1,1,0.1,1.5,0.1c1-0.1,2-0.3,3-0.6c2-0.4,4-0.9,5.9-1.7
		c0.4-0.1,0.6-0.4,0.7-0.7c0-0.3,0-0.7-0.2-1c-0.1-0.1-0.3,0.1-0.2,0.2c0.2,0.2,0.1,0.6,0.1,0.9c-0.1,0.4-0.6,0.5-1,0.6
		c-0.9,0.3-1.8,0.6-2.7,0.9c-0.9,0.3-1.9,0.5-2.8,0.7c-0.9,0.2-1.9,0.4-2.8,0.5c-0.5,0.1-1.1,0-1.6-0.1c-0.5-0.1-1-0.2-1.5-0.1
		C74.8,134.4,74.8,134.7,74.9,134.6L74.9,134.6z"/>
	<path class="st0" d="M75.7,135.5c0.4,0,0.7,0.1,1.1,0.1c0.4,0.1,0.8,0,1.2-0.1c0.9-0.2,1.8-0.4,2.6-0.6c0.9-0.2,1.8-0.4,2.6-0.6
		c0.8-0.2,1.5-0.5,2.3-0.7c0.8-0.3,1.6-0.5,2.4-0.9c0.1-0.1,0-0.3-0.1-0.2c-0.7,0.3-1.4,0.6-2.1,0.8c-0.7,0.2-1.5,0.5-2.2,0.7
		c-0.8,0.2-1.7,0.4-2.5,0.6c-0.9,0.2-1.7,0.4-2.6,0.5c-0.5,0.1-1,0.2-1.5,0.1c-0.4-0.1-0.8-0.2-1.2-0.2
		C75.5,135.3,75.5,135.6,75.7,135.5L75.7,135.5z"/>
	<path class="st0" d="M80.9,130.4c0.5,0.3,1,0.4,1.5,0.5c0.6,0.1,1.2,0.2,1.8,0.3c0.6,0.1,1.2,0.1,1.7,0.2c0.5,0.1,1,0.3,1.5,0.5
		c0.1,0.1,0.3-0.1,0.1-0.2c-0.4-0.2-0.9-0.4-1.4-0.5c-0.5-0.1-1.1-0.2-1.6-0.2c-0.6-0.1-1.3-0.2-1.9-0.3c-0.6-0.1-1.1-0.2-1.6-0.5
		C80.9,130.1,80.8,130.3,80.9,130.4L80.9,130.4z"/>
	<path class="st0" d="M84.7,129.1c0.5,0.9,1.3,1.8,2.4,1.7c0.2,0,0.2-0.3,0-0.2c-1,0.1-1.7-0.7-2.2-1.6
		C84.9,128.8,84.7,128.9,84.7,129.1L84.7,129.1z"/>
	<path class="st0" d="M87.5,122.7c0,0.7,0.7,1.2,1.2,1.6c0.1,0.1,0.3,0.2,0.4,0.3c0.1,0,0.2,0.1,0.2,0.1c0.1,0,0.2,0,0.2,0.1
		c0,0.2-0.2,0.4-0.3,0.5c-0.1,0.2-0.3,0.4-0.4,0.5c0,0.1-0.1,0.1,0,0.2c0.3,0.3,0.6,0.4,1,0.4c0.2,0,0.2-0.3,0-0.2
		c-0.3,0-0.6-0.1-0.8-0.3c0,0.1,0,0.1,0,0.2c0.1-0.2,0.3-0.4,0.4-0.5c0.1-0.1,0.3-0.3,0.4-0.5c0-0.1,0.1-0.3,0-0.4
		c-0.1-0.2-0.3-0.1-0.4-0.2c-0.2,0-0.4-0.2-0.5-0.3c-0.2-0.1-0.4-0.3-0.5-0.4c-0.3-0.2-0.6-0.5-0.6-1
		C87.7,122.6,87.5,122.6,87.5,122.7L87.5,122.7z"/>
	<path class="st0" d="M89.1,125.8c-0.3-0.3-0.7-0.4-1.2-0.5c-0.1,0-0.1,0.1-0.1,0.1c0,0.1,0.1,0.1,0.1,0.1c0.4,0,0.7,0.2,1,0.4
		c0.1,0,0.1,0.1,0.2,0C89.1,125.9,89.1,125.9,89.1,125.8L89.1,125.8z"/>
	<path class="st0" d="M63.2,124c0.5,0.8,1.1,1.6,1.6,2.5c0.2,0.4,0.4,0.8,0.5,1.2c0.1,0.3,0.1,0.7,0.4,0.9c0.1,0.1,0.1,0,0.2,0
		c0.1-0.2,0.2-0.5,0.1-0.8c0,0.1-0.1,0.1-0.1,0.2c0.7,0,1.4,0,2.1,0.1c0.7,0.1,1.4,0.3,2.1,0.4c1.4,0.3,2.8,0.4,4.2,0.5
		c0.1,0,0.1-0.1,0.1-0.2c-0.1-0.2-0.3-0.6,0-0.7c0.1,0,0.1-0.1,0.1-0.2c-0.2-0.3-0.5-0.6-0.3-1c0-0.1,0.1-0.1,0.2-0.2
		c0.1-0.1,0.1-0.2,0.2-0.3c0.1-0.1-0.2-0.2-0.2-0.1c-0.1,0.3-0.4,0.4-0.4,0.7c-0.1,0.4,0.2,0.7,0.4,1c0-0.1,0-0.1,0.1-0.2
		c-0.5,0.1-0.3,0.7-0.2,1c0-0.1,0.1-0.1,0.1-0.2c-1.4-0.1-2.9-0.2-4.3-0.5c-0.7-0.2-1.3-0.3-2-0.4c-0.7-0.1-1.4-0.1-2.1-0.1
		c-0.1,0-0.1,0.1-0.1,0.2c0.1,0.2,0,0.4-0.1,0.6c0.1,0,0.1,0,0.2,0c-0.2-0.2-0.3-0.6-0.3-1c-0.1-0.4-0.3-0.8-0.5-1.2
		c-0.5-0.8-1-1.6-1.5-2.4C63.3,123.8,63.1,123.9,63.2,124L63.2,124z"/>
	<path class="st0" d="M50.8,119.2c-0.2,0.9,0.3,1.7,0.9,2.4c0.5,0.6,1.2,1.2,2.1,1.3c0.2,0,0.2-0.2,0-0.2c-0.8-0.1-1.4-0.6-1.9-1.2
		c-0.5-0.6-1-1.3-0.9-2.2C51.1,119.1,50.9,119,50.8,119.2L50.8,119.2z"/>
	<path class="st0" d="M55.2,123.7c0.8,1.4,1.9,2.5,3.1,3.4c1.2,0.8,2.5,1.5,3.8,2.1c1.5,0.7,3.2,1.8,4.9,1.4
		c0.2-0.1,0.4-0.1,0.7-0.2c0.3-0.1,0.5,0,0.8,0.1c0.4,0.2,0.8,0.5,1.2,0.8c0.8,0.6,1.6,1.2,2.3,1.8c0.8,0.7,1.7,1.4,2.4,2.1
		c0.2,0.2,0.4,0.4,0.5,0.6c0.1,0.1,0.5,0.5,0.4,0.7c0,0.1-0.2,0.2-0.2,0.2c-0.1,0.1-0.2,0.2-0.3,0.2c-0.2,0.1-0.4,0.3-0.6,0.4
		c-0.1,0.1,0,0.3,0.1,0.2c0.4-0.2,0.7-0.4,1-0.7c0.1-0.1,0.2-0.2,0.3-0.4c0-0.2-0.1-0.4-0.2-0.5c-0.5-0.8-1.2-1.4-1.9-2.1
		c-0.7-0.6-1.5-1.3-2.3-1.9c-0.4-0.3-0.8-0.6-1.2-0.9c-0.4-0.3-0.8-0.6-1.2-0.8c-0.4-0.2-0.8-0.3-1.2-0.2c-0.5,0.1-0.9,0.3-1.5,0.2
		c-1-0.1-1.9-0.5-2.8-1c-1.3-0.7-2.7-1.3-4-2.1c-1.6-1-2.9-2.2-3.8-3.8C55.3,123.4,55.1,123.5,55.2,123.7L55.2,123.7z"/>
	<path class="st0" d="M75.3,137.6c0.3-0.2,0.6-0.5,0.9-0.8c0.1-0.1,0.3-0.2,0.3-0.4c0-0.2-0.2-0.4-0.3-0.5c-0.3-0.4-0.7-0.8-1-1.2
		c-0.3-0.3-0.5-0.7-0.9-0.9c-0.1-0.1-0.3,0.1-0.1,0.2c0.3,0.2,0.6,0.5,0.8,0.8c0.3,0.3,0.6,0.7,0.9,1c0.1,0.2,0.3,0.3,0.4,0.5
		c0,0.1,0.1,0.1,0.1,0.2c0,0.1,0,0.1-0.1,0.1c-0.1,0.1-0.1,0.1-0.2,0.2c-0.2,0.2-0.5,0.5-0.8,0.7C75,137.5,75.2,137.7,75.3,137.6
		L75.3,137.6z"/>
	<path class="st0" d="M72.3,132.2c-0.5-0.7-1.3-1-1.9-1.4c-0.6-0.4-1.5-1.3-2.2-0.7c-0.1,0.1,0,0.3,0.1,0.2c0.4-0.3,0.7-0.1,1.1,0.1
		c0.4,0.2,0.7,0.5,1,0.7c0.6,0.4,1.3,0.6,1.7,1.2C72.1,132.5,72.3,132.4,72.3,132.2L72.3,132.2z"/>
	<path class="st0" d="M60.3,128.2c0.9-0.2,1.9-0.4,2.9-0.4c0.2,0,0.4,0,0.7,0c0.2,0,0.5,0,0.7,0c0.2,0.1,0.3,0.2,0.5,0.4
		c0.1,0.2,0.3,0.3,0.4,0.5c0.1,0.1,0.3-0.1,0.2-0.2c-0.3-0.3-0.6-0.7-0.9-0.9c-0.4-0.2-0.9-0.1-1.4-0.1c-1,0.1-2.1,0.2-3.1,0.4
		C60,128,60.1,128.2,60.3,128.2L60.3,128.2z"/>
	<path class="st0" d="M65.8,128.4c-0.6,0.1-1.2,0.2-1.8,0.3c-0.3,0.1-0.6,0.1-0.9,0.2c-0.1,0-0.3,0.1-0.4,0.1c-0.1,0-0.2,0-0.2,0.1
		c-0.1,0.1,0.1,0.3,0.2,0.1c0-0.1,0.3-0.1,0.4-0.1c0.1,0,0.3,0,0.4-0.1c0.3-0.1,0.5-0.1,0.8-0.2c0.5-0.1,1.1-0.2,1.6-0.3
		C66,128.7,66,128.4,65.8,128.4L65.8,128.4z"/>
	<path class="st0" d="M59.8,116.3c-0.2,0-0.4,0-0.6,0.2c-0.1,0.1-0.2,0.3-0.2,0.5c0,0.2,0.2,0.4,0.3,0.6c0.1,0.2,0.3,0.4,0.4,0.7
		c0.1,0.2,0.2,0.5,0.3,0.7c0.1,0.2,0.1,0.4,0.2,0.6c0.1,0.1,0.2,0.3,0.4,0.3c0.2,0,0.3,0,0.4-0.2c0.1-0.1-0.2-0.3-0.2-0.1
		c-0.1,0.2-0.2,0.1-0.3,0c-0.1-0.1-0.1-0.3-0.2-0.4c-0.1-0.3-0.2-0.6-0.4-1c-0.1-0.3-0.3-0.6-0.5-0.9c-0.1-0.1-0.2-0.3,0-0.4
		c0.2-0.1,0.4-0.1,0.5-0.1C60,116.5,59.9,116.2,59.8,116.3L59.8,116.3z"/>
	<path class="st0" d="M52.6,118c-0.8,0.6-0.7,1.7-0.3,2.5c0.3,0.7,0.5,1.5,1.3,1.9c0.1,0.1,0.3-0.1,0.1-0.2c-0.6-0.3-0.8-1-1.1-1.6
		c-0.3-0.7-0.6-1.8,0.2-2.4C52.8,118.2,52.7,118,52.6,118L52.6,118z"/>
	<path class="st0" d="M63.8,115.2c0.2,0.9,0.5,1.7,0.8,2.5c0.1,0.1,0.3,0,0.2-0.1c-0.3-0.8-0.6-1.6-0.8-2.5
		C64,115,63.7,115.1,63.8,115.2L63.8,115.2z"/>
	<path class="st0" d="M64.7,114.9c0.1,0.9,0.7,1.6,0.9,2.4c0.1,0.1,0.3,0.1,0.2-0.1c-0.3-0.8-0.8-1.6-0.9-2.4
		C64.9,114.7,64.7,114.7,64.7,114.9L64.7,114.9z"/>
	<path class="st0" d="M65.7,114.4c0.3,0.9,0.6,1.7,0.9,2.6c0.1,0.1,0.3,0.1,0.2-0.1c-0.3-0.9-0.6-1.7-0.9-2.6
		C65.9,114.2,65.7,114.3,65.7,114.4L65.7,114.4z"/>
	<path class="st0" d="M66.7,114.1c0.3,0.8,0.6,1.7,0.8,2.6c0,0.2,0.3,0.1,0.2-0.1c-0.2-0.9-0.5-1.7-0.8-2.6
		C66.8,113.8,66.6,113.9,66.7,114.1L66.7,114.1z"/>
	<path class="st0" d="M67.5,113.6c0.3,0.9,0.6,1.9,0.8,2.8c0,0.2,0.3,0.1,0.2-0.1c-0.2-0.9-0.5-1.9-0.8-2.8
		C67.7,113.4,67.4,113.5,67.5,113.6L67.5,113.6z"/>
	<path class="st0" d="M68.6,113.3c0.3,0.9,0.6,1.8,0.7,2.7c0,0.2,0.3,0.2,0.2,0c-0.1-1-0.3-1.9-0.7-2.8
		C68.7,113.1,68.5,113.2,68.6,113.3L68.6,113.3z"/>
	<path class="st0" d="M69.5,113c0,0.9,0.2,1.8,0.4,2.8c0,0.2,0.3,0.1,0.2-0.1c-0.2-0.9-0.3-1.8-0.4-2.7
		C69.7,112.9,69.5,112.9,69.5,113L69.5,113z"/>
	<path class="st0" d="M72.4,132.3c0.5,0.5,1.2,0.9,1.8,1.1c0.1,0,0.1,0,0.2,0c0-0.1,0-0.1,0-0.2c-0.6-0.3-1.2-0.6-1.8-1.1
		C72.5,132,72.3,132.2,72.4,132.3L72.4,132.3z"/>
	<path class="st0" d="M72.8,131.5c0.6,0.5,1.3,0.9,2,1.2c0.1,0.1,0.3-0.1,0.1-0.2c-0.7-0.3-1.4-0.7-2-1.2
		C72.7,131.2,72.6,131.4,72.8,131.5L72.8,131.5z"/>
	<path class="st0" d="M73.3,130.9c0.6,0.4,1.2,0.8,1.9,1.1c0.1,0.1,0.3-0.1,0.1-0.2c-0.7-0.3-1.3-0.7-1.9-1.1
		C73.2,130.6,73.1,130.8,73.3,130.9L73.3,130.9z"/>
	<path class="st0" d="M73.7,130.3c0.3,0.2,0.7,0.4,1,0.6c0.2,0.1,0.3,0.2,0.5,0.3c0.2,0.1,0.3,0.1,0.5,0.3c0.1,0.1,0.3-0.1,0.2-0.2
		c-0.2-0.1-0.3-0.2-0.5-0.3c-0.2-0.1-0.3-0.2-0.5-0.3c-0.4-0.2-0.7-0.4-1-0.6C73.6,130,73.5,130.3,73.7,130.3L73.7,130.3z"/>
	<path class="st0" d="M74.1,129.9c0.7,0.4,1.4,0.7,2.1,1.1c0.1,0.1,0.3-0.1,0.1-0.2c-0.7-0.4-1.4-0.8-2.1-1.1
		C74.1,129.6,74,129.8,74.1,129.9L74.1,129.9z"/>
	<path class="st0" d="M80.7,126.8c0,0,0.1,0.1,0.1,0.1c0,0,0,0,0,0c0,0,0,0,0,0c0,0,0,0,0,0c0,0,0,0,0,0c0,0,0-0.1,0-0.1
		c0,0,0,0,0,0c0,0,0,0,0-0.1c0,0-0.1-0.1-0.1-0.1c0,0,0,0,0,0c0,0,0,0,0,0c0,0,0,0,0,0c0,0,0,0,0,0
		C80.7,126.7,80.7,126.7,80.7,126.8C80.7,126.7,80.7,126.7,80.7,126.8C80.7,126.8,80.7,126.8,80.7,126.8L80.7,126.8z"/>
	<path class="st0" d="M81.1,126.5c0.1,0.1,0.2,0.2,0.3,0.3c0,0,0.1,0,0.1,0c0,0,0.1,0,0.1-0.1c0,0,0-0.1,0-0.1c0,0,0-0.1-0.1-0.1
		c-0.1-0.1-0.2-0.2-0.3-0.3c0,0-0.1,0-0.1,0c0,0-0.1,0-0.1,0.1C81.1,126.4,81.1,126.4,81.1,126.5C81.1,126.5,81.1,126.5,81.1,126.5
		L81.1,126.5z"/>
	<path class="st0" d="M81.5,126c0.1,0.1,0.2,0.3,0.3,0.4c0,0,0.1,0,0.1,0c0,0,0.1,0,0.1,0c0,0,0-0.1,0-0.1c0,0,0-0.1,0-0.1
		c-0.1-0.1-0.2-0.3-0.3-0.4c0,0-0.1,0-0.1,0c0,0-0.1,0-0.1,0C81.5,125.9,81.5,125.9,81.5,126C81.5,126,81.5,126,81.5,126L81.5,126z"
		/>
	<path class="st0" d="M81.8,125.6c0.1,0,0.1,0.1,0.2,0.1c0,0,0,0,0,0c0,0,0,0,0,0c0,0,0,0,0,0c0,0,0.1,0,0.1,0.1
		c0.1,0.1,0.2,0.2,0.3,0.3c0,0,0.1,0,0.2,0c0,0,0-0.1,0-0.2c-0.2-0.2-0.4-0.4-0.7-0.6c-0.1,0-0.1,0-0.2,0
		C81.8,125.5,81.8,125.6,81.8,125.6L81.8,125.6z"/>
	<path class="st0" d="M81.7,124.4c0.4,0.5,0.8,1,1.2,1.5c0,0.1,0.1,0,0.2,0c0.1-0.1,0-0.1,0-0.2c-0.4-0.5-0.8-1-1.2-1.5
		c0-0.1-0.1,0-0.2,0C81.6,124.2,81.6,124.3,81.7,124.4L81.7,124.4z"/>
	<path class="st0" d="M82.2,124.1c0.3,0.6,0.9,1,1.2,1.6c0.1,0.1,0.3,0,0.2-0.1c-0.3-0.6-0.9-1-1.2-1.6
		C82.3,123.9,82.1,124,82.2,124.1L82.2,124.1z"/>
	<path class="st0" d="M82.7,124.1c0.5,0.4,0.9,0.9,1.2,1.5c0.1,0.1,0.3,0,0.2-0.1c-0.3-0.6-0.7-1.1-1.2-1.5
		C82.7,123.8,82.6,124,82.7,124.1L82.7,124.1z"/>
	<path class="st0" d="M83.2,124.2c0.4,0.4,0.8,0.9,1.1,1.4c0.1,0.1,0.3,0,0.2-0.1c-0.3-0.5-0.7-1-1.1-1.5
		C83.3,123.9,83.1,124,83.2,124.2L83.2,124.2z"/>
	<path class="st0" d="M83.7,124.2c0.4,0.5,0.8,0.9,1.2,1.4c0.1,0.1,0.3-0.1,0.2-0.2c-0.4-0.5-0.8-0.9-1.2-1.4
		C83.8,123.9,83.6,124.1,83.7,124.2L83.7,124.2z"/>
	<g>
		<path class="st9" d="M57.6,122.4c-0.7,0.7-1.5,1.4-2.2,2.1c-0.8-0.5-1.6-1.1-2.3-1.7c0.5-0.6,1-1.1,1.4-1.7
			c0.4-0.4,0.7-0.8,1.2-1.1c0,0,0.1-0.1,0.1,0c0.1,0,0.1,0,0.1,0.1c0.5,0.4,1,0.9,1.4,1.5C57.6,121.7,57.8,122.1,57.6,122.4"/>
		<path class="st0" d="M57.5,122.3c-0.7,0.7-1.5,1.4-2.2,2.1c0,0,0.1,0,0.1,0c-0.8-0.5-1.6-1-2.3-1.7c0,0.1,0,0.1,0,0.2
			c0.4-0.5,0.8-0.9,1.2-1.4c0.3-0.4,0.7-0.8,1.1-1.2c0.1-0.1,0.2-0.2,0.3-0.2c0.1,0,0.3,0.1,0.4,0.2c0.2,0.2,0.4,0.4,0.6,0.6
			c0.2,0.2,0.4,0.4,0.5,0.6C57.4,121.7,57.6,122,57.5,122.3c0,0.2,0.3,0.2,0.3,0.1c0.1-0.6-0.4-1.1-0.8-1.5
			c-0.2-0.2-0.4-0.5-0.7-0.7c-0.2-0.2-0.4-0.4-0.6-0.4c-0.3,0.1-0.5,0.3-0.7,0.5c-0.2,0.2-0.4,0.4-0.6,0.7c-0.5,0.6-1,1.1-1.4,1.7
			c0,0.1-0.1,0.1,0,0.2c0.7,0.7,1.5,1.3,2.3,1.8c0,0,0.1,0,0.1,0c0.7-0.7,1.5-1.4,2.2-2.1C57.8,122.4,57.6,122.2,57.5,122.3
			L57.5,122.3z"/>
	</g>
	<g>
		<path d="M70.3,121.3c-0.1-0.1-0.3,0.1-0.2-0.1c0.1-0.3,0.5-0.8,0.7-1c0.9-0.9,2-1.6,3.2-2c0.4-0.2,0.9-0.3,1.3-0.3
			c0.2,0,0.4,0,0.6,0.1c0.2,0.1,0.4,0.3,0.5,0.5c0.1,0.2,0.1,0.5,0.1,0.7c0,0.2,0,0.5-0.1,0.7c-0.1,0.2-0.2,0.3-0.4,0.4
			c-0.9,0.7-2,1-3.2,1.2c-0.4,0-0.8,0.1-1.1,0c-0.5-0.1-1.2-0.2-1.7-0.2"/>
		<path class="st0" d="M70.3,121.2c0,0-0.1,0-0.1,0c0,0-0.1,0-0.1,0c0,0,0.1,0.1,0.1,0.1C70.2,121.3,70.3,121.1,70.3,121.2
			c0.1-0.2,0.1-0.3,0.2-0.3c0.1-0.2,0.2-0.3,0.4-0.5c0.3-0.3,0.7-0.7,1.1-0.9c0.8-0.6,1.8-1.1,2.8-1.3c0.5-0.1,1.2-0.2,1.5,0.4
			c0.2,0.4,0.3,1.2,0,1.6c-0.3,0.4-0.8,0.6-1.3,0.8c-0.4,0.2-0.9,0.3-1.4,0.4c-0.6,0.1-1.2,0.2-1.8,0.1c-0.6-0.1-1.1-0.2-1.6-0.2
			c-0.2,0-0.2,0.2,0,0.2c0.6,0,1.1,0.1,1.6,0.2c0.6,0.1,1.2,0,1.9-0.1c0.5-0.1,1.1-0.2,1.6-0.5c0.5-0.2,1-0.5,1.3-0.9
			c0.3-0.4,0.2-1.1,0.1-1.6c-0.2-0.5-0.6-0.7-1.1-0.7c-0.6,0-1.2,0.2-1.7,0.4c-0.5,0.2-1,0.5-1.5,0.8c-0.5,0.3-1,0.7-1.5,1.2
			c-0.2,0.2-0.3,0.4-0.5,0.6c-0.1,0.1-0.3,0.4-0.3,0.5c0,0,0,0.1,0.1,0.1c0.1,0,0.1,0,0.2,0C70.4,121.4,70.5,121.2,70.3,121.2
			L70.3,121.2z"/>
	</g>
</g>
<g id="ACCESS_00000180324730226439298650000016574442612841748865_">
</g>
<g id="TEST_DE_BASE">
</g>
<g id="NORDIQUE">
</g>
<g id="TRAIL">
</g>
<g id="OUTDOOR">
</g>
<g id="ESCALADE">
</g>
<g id="RANDO_00000013915041545151807900000008440060763435822255_">
</g>
<g id="TEXTILE_00000034067722609644588470000018353828151503125903_">
</g>
<g id="TEST_ACCUEIL">
</g>
<g id="TEST_UNIVERS">
</g>
</svg>
